<mxfile host="app.diagrams.net" agent="Mozilla/5.0 (Macintosh; Intel Mac OS X 10_15_7) AppleWebKit/605.1.15 (KHTML, like Gecko) Version/18.1.1 Safari/605.1.15" version="26.0.2">
  <diagram name="Page-1" id="Foi4DLvm-RDtPkBHi5n1">
    <mxGraphModel grid="1" page="1" gridSize="10" guides="1" tooltips="1" connect="1" arrows="1" fold="1" pageScale="1" pageWidth="827" pageHeight="1169" math="0" shadow="0">
      <root>
        <mxCell id="0" />
        <mxCell id="1" parent="0" />
        <mxCell id="COgZEBj8oy-85jg5KQzt-1" value="" style="rounded=0;orthogonalLoop=1;jettySize=auto;html=1;endArrow=halfCircle;endFill=0;endSize=6;strokeWidth=1;sketch=0;fillColor=#ffe6cc;strokeColor=#d79b00;" edge="1" parent="1">
          <mxGeometry relative="1" as="geometry">
            <mxPoint x="200" y="139.71" as="sourcePoint" />
            <mxPoint x="40" y="140" as="targetPoint" />
          </mxGeometry>
        </mxCell>
        <mxCell id="COgZEBj8oy-85jg5KQzt-2" value="Internship Interface" style="edgeLabel;html=1;align=center;verticalAlign=middle;resizable=0;points=[];" connectable="0" vertex="1" parent="COgZEBj8oy-85jg5KQzt-1">
          <mxGeometry x="0.3774" relative="1" as="geometry">
            <mxPoint x="17" as="offset" />
          </mxGeometry>
        </mxCell>
        <mxCell id="COgZEBj8oy-85jg5KQzt-3" value="&lt;b&gt;Internship Manager&lt;/b&gt;" style="shape=module;align=left;spacingLeft=20;align=center;verticalAlign=top;whiteSpace=wrap;html=1;fillColor=#ffe6cc;strokeColor=#d79b00;" vertex="1" parent="1">
          <mxGeometry x="169" y="40" width="210" height="200" as="geometry" />
        </mxCell>
        <mxCell id="COgZEBj8oy-85jg5KQzt-4" style="edgeStyle=orthogonalEdgeStyle;rounded=0;orthogonalLoop=1;jettySize=auto;html=1;exitX=1;exitY=0.25;exitDx=0;exitDy=0;entryX=0;entryY=0.5;entryDx=0;entryDy=0;endArrow=none;endFill=0;fillColor=#f5f5f5;strokeColor=#666666;" edge="1" parent="1" source="COgZEBj8oy-85jg5KQzt-5">
          <mxGeometry relative="1" as="geometry">
            <Array as="points">
              <mxPoint x="359" y="162" />
              <mxPoint x="359" y="105" />
            </Array>
            <mxPoint x="369" y="105" as="targetPoint" />
          </mxGeometry>
        </mxCell>
        <mxCell id="COgZEBj8oy-85jg5KQzt-17" style="edgeStyle=orthogonalEdgeStyle;rounded=0;orthogonalLoop=1;jettySize=auto;html=1;exitX=1;exitY=0.5;exitDx=0;exitDy=0;endArrow=none;endFill=0;fillColor=#f8cecc;strokeColor=#b85450;" edge="1" parent="1" source="COgZEBj8oy-85jg5KQzt-5">
          <mxGeometry relative="1" as="geometry">
            <mxPoint x="390" y="174.97674418604652" as="targetPoint" />
          </mxGeometry>
        </mxCell>
        <mxCell id="COgZEBj8oy-85jg5KQzt-5" value="Comment&lt;div&gt;Submanager&lt;/div&gt;" style="shape=module;align=left;spacingLeft=20;align=center;verticalAlign=middle;whiteSpace=wrap;html=1;" vertex="1" parent="1">
          <mxGeometry x="219" y="150" width="120" height="50" as="geometry" />
        </mxCell>
        <mxCell id="COgZEBj8oy-85jg5KQzt-6" style="edgeStyle=orthogonalEdgeStyle;rounded=0;orthogonalLoop=1;jettySize=auto;html=1;exitX=1;exitY=0.5;exitDx=0;exitDy=0;endArrow=none;endFill=0;fillColor=#f5f5f5;strokeColor=#666666;" edge="1" parent="1" source="COgZEBj8oy-85jg5KQzt-8">
          <mxGeometry relative="1" as="geometry">
            <Array as="points" />
            <mxPoint x="389" y="105" as="targetPoint" />
          </mxGeometry>
        </mxCell>
        <mxCell id="COgZEBj8oy-85jg5KQzt-7" style="edgeStyle=orthogonalEdgeStyle;rounded=0;orthogonalLoop=1;jettySize=auto;html=1;exitX=1;exitY=0.75;exitDx=0;exitDy=0;fillColor=#f8cecc;strokeColor=#b85450;endArrow=none;endFill=0;" edge="1" parent="1" source="COgZEBj8oy-85jg5KQzt-8">
          <mxGeometry relative="1" as="geometry">
            <mxPoint x="390" y="175" as="targetPoint" />
            <Array as="points">
              <mxPoint x="350" y="118" />
              <mxPoint x="350" y="175" />
            </Array>
          </mxGeometry>
        </mxCell>
        <mxCell id="COgZEBj8oy-85jg5KQzt-8" value="Progress&lt;div&gt;Submanager&lt;/div&gt;" style="shape=module;align=left;spacingLeft=20;align=center;verticalAlign=middle;whiteSpace=wrap;html=1;" vertex="1" parent="1">
          <mxGeometry x="219" y="80" width="120" height="50" as="geometry" />
        </mxCell>
        <mxCell id="COgZEBj8oy-85jg5KQzt-9" value="" style="ellipse;whiteSpace=wrap;html=1;align=center;aspect=fixed;fillColor=none;strokeColor=none;resizable=0;perimeter=centerPerimeter;rotatable=0;allowArrows=0;points=[];outlineConnect=1;" vertex="1" parent="1">
          <mxGeometry x="493" y="100" width="10" height="10" as="geometry" />
        </mxCell>
        <mxCell id="COgZEBj8oy-85jg5KQzt-10" value="" style="ellipse;whiteSpace=wrap;html=1;align=center;aspect=fixed;fillColor=none;strokeColor=none;resizable=0;perimeter=centerPerimeter;rotatable=0;allowArrows=0;points=[];outlineConnect=1;" vertex="1" parent="1">
          <mxGeometry x="493" y="170" width="10" height="10" as="geometry" />
        </mxCell>
        <mxCell id="COgZEBj8oy-85jg5KQzt-11" value="" style="rounded=0;orthogonalLoop=1;jettySize=auto;html=1;endArrow=oval;endFill=0;sketch=0;sourcePerimeterSpacing=0;targetPerimeterSpacing=0;endSize=10;exitX=1;exitY=0.862;exitDx=0;exitDy=0;exitPerimeter=0;fillColor=#f5f5f5;strokeColor=#666666;" edge="1" parent="1">
          <mxGeometry relative="1" as="geometry">
            <mxPoint x="389" y="105" as="sourcePoint" />
            <mxPoint x="529" y="105" as="targetPoint" />
          </mxGeometry>
        </mxCell>
        <mxCell id="COgZEBj8oy-85jg5KQzt-12" value="Model Interface" style="edgeLabel;html=1;align=center;verticalAlign=middle;resizable=0;points=[];" connectable="0" vertex="1" parent="COgZEBj8oy-85jg5KQzt-11">
          <mxGeometry x="-0.3425" relative="1" as="geometry">
            <mxPoint x="2" y="-1" as="offset" />
          </mxGeometry>
        </mxCell>
        <mxCell id="COgZEBj8oy-85jg5KQzt-13" value="" style="rounded=0;orthogonalLoop=1;jettySize=auto;html=1;endArrow=oval;endFill=0;sketch=0;sourcePerimeterSpacing=0;targetPerimeterSpacing=0;endSize=10;exitX=1;exitY=0.862;exitDx=0;exitDy=0;exitPerimeter=0;fillColor=#f8cecc;strokeColor=#b85450;" edge="1" parent="1">
          <mxGeometry relative="1" as="geometry">
            <mxPoint x="389" y="175" as="sourcePoint" />
            <mxPoint x="529" y="175" as="targetPoint" />
          </mxGeometry>
        </mxCell>
        <mxCell id="COgZEBj8oy-85jg5KQzt-14" value="Notification Interface" style="edgeLabel;html=1;align=center;verticalAlign=middle;resizable=0;points=[];" connectable="0" vertex="1" parent="COgZEBj8oy-85jg5KQzt-13">
          <mxGeometry x="-0.3425" relative="1" as="geometry">
            <mxPoint x="14" y="-1" as="offset" />
          </mxGeometry>
        </mxCell>
        <mxCell id="COgZEBj8oy-85jg5KQzt-15" style="edgeStyle=orthogonalEdgeStyle;rounded=0;orthogonalLoop=1;jettySize=auto;html=1;exitX=0;exitY=0.5;exitDx=10;exitDy=0;exitPerimeter=0;entryX=0.084;entryY=0.508;entryDx=0;entryDy=0;entryPerimeter=0;endArrow=none;endFill=0;fillColor=#ffe6cc;strokeColor=#d79b00;" edge="1" parent="1" source="COgZEBj8oy-85jg5KQzt-3" target="COgZEBj8oy-85jg5KQzt-8">
          <mxGeometry relative="1" as="geometry">
            <Array as="points">
              <mxPoint x="200" y="140" />
              <mxPoint x="200" y="105" />
            </Array>
          </mxGeometry>
        </mxCell>
        <mxCell id="COgZEBj8oy-85jg5KQzt-16" style="edgeStyle=orthogonalEdgeStyle;rounded=0;orthogonalLoop=1;jettySize=auto;html=1;exitX=0;exitY=0.5;exitDx=10;exitDy=0;exitPerimeter=0;entryX=0.082;entryY=0.499;entryDx=0;entryDy=0;entryPerimeter=0;endArrow=none;endFill=0;fillColor=#ffe6cc;strokeColor=#d79b00;" edge="1" parent="1" source="COgZEBj8oy-85jg5KQzt-3" target="COgZEBj8oy-85jg5KQzt-5">
          <mxGeometry relative="1" as="geometry">
            <Array as="points">
              <mxPoint x="200" y="140" />
              <mxPoint x="200" y="175" />
            </Array>
          </mxGeometry>
        </mxCell>
      </root>
    </mxGraphModel>
  </diagram>
</mxfile>
